<?xml version="1.0" encoding="UTF-8"?>
<svg xmlns="http://www.w3.org/2000/svg" xmlns:xlink="http://www.w3.org/1999/xlink" version="1.1" viewBox="0 0 2048 2048">
  <!-- Generator: Adobe Illustrator 29.5.1, SVG Export Plug-In . SVG Version: 2.1.0 Build 141)  -->
  <defs>
    <clipPath id="clippath">
      <path d="M1039.4,298.8c2.4,0,4.8.8,6.9,2.4l193.1,153.7c3.5,2.8,5,7.5,3.8,11.8l-83.8,291.9c-.9,3.3-3.3,5.9-6.4,7.2-3.1,1.3-6.7,1.1-9.6-.5l-121.6-66.4-115.6,66.3c-1.7,1-3.6,1.5-5.5,1.5s-2.8-.3-4.2-.8c-3.2-1.3-5.6-4-6.5-7.2l-83.8-291c-1.3-4.4.3-9,3.8-11.8l144.5-113.7c4.8-3.8,11.8-3,15.6,1.9s3,11.8-1.9,15.6l-138.6,109.1,77.8,270.1,108.7-62.3c3.4-1.9,7.5-2,10.9-.1l114.8,62.7,77.9-271.4-187.3-149.1c-2.7-2.2-4.2-5.4-4.2-8.7M987.7,692.8l159.4-282.8h0c-5.8-4.6-2.1-1.7-4.7-3.7-3.6-2.8,2,1.6-2.7-2.1l-2-1.6-170.2,301.9M1039.4,298.8h-11.2v11.2l11.2-11.2ZM1018,1741.6v11.2h-11.2M1018,1741.6c0-3.3-1.5-6.5-4.2-8.7l-187.3-149.1,77.9-271.4,114.8,62.7c3.4,1.9,7.5,1.8,10.9-.1l108.7-62.3,77.8,270.1-138.6,109.1c-4.8,3.8-5.7,10.8-1.9,15.6,3.8,4.8,10.8,5.7,15.6,1.9l144.5-113.7c3.6-2.8,5.1-7.5,3.8-11.8l-83.8-291c-.9-3.3-3.4-6-6.5-7.2-3.2-1.3-6.8-1-9.7.7l-115.6,66.3-121.6-66.4c-3-1.6-6.5-1.8-9.6-.5-3.1,1.3-5.5,4-6.4,7.2l-83.8,291.9c-1.2,4.3.2,9,3.8,11.8l193.1,153.7c2.1,1.6,4.5,2.4,6.9,2.4M908.5,1649.1l176-312.2c1.6-2.9.6-6.5-2.3-8.1-2.9-1.6-6.5-.6-8.1,2.3l-175,310.5c9.4,7.5,4.4,3.6,9.4,7.5M844.2,756.5l-377.4-205.3-17.6,6.8-57.7,143.7v121.2l123.2,202.8-123.2,211.5v122.6l66.2,156,386.5-225.8-113.5-110.8-112.8-149.5-57.1-4-10,11.3,61.2,30.6,16.8,10,56.6,64.3,34.4,46.7,3.1,8.4,84.2,82.7-339.9,205.1-49.3-127.7v-113.1l112.2-195.6,2.5-44.5-85.2-142.8-11.3-23.7-18.6-20.3-4-111.2,51.4-125.9,344.9,202.1-86.4,82.4v6.8l-28.2,25.4-88.6,65.5-49.1-29.9-27.7-24.3,96,121.9-.6-13.5,11.9-12.4,27.7-42.3,58.1-75.1v167.1l19.2,41.8v-223.6l95.4-88.1,1.7-14.1,4.9-13.2ZM447.5,861.1l39.3,31.3,22.9,18.9,4.1-3.9-19.6-21.1-55.9-44.6,9.2,19.4ZM561.3,1026l-31.7-25.2-13.4,25.2,15,24.8,16.7-12.4h9.8l3.6-12.4ZM662.2,931.1l-226.1-280.4M665.9,935.8c2.6-2.1,3-5.8.9-8.4l-226.1-280.4c-2.1-2.6-5.8-3-8.4-.9-2.6,2.1-3,5.8-.9,8.4l226.1,280.4c1.2,1.5,2.9,2.2,4.6,2.2s2.6-.4,3.7-1.3ZM723,1015.6l-49.6-65-8.5,11,58.1,82v-28.1ZM628.4,1066.2l-217.5,267.4M415.5,1337.3l217.5-267.4c2.1-2.5,1.7-6.3-.9-8.4-2.5-2.1-6.3-1.7-8.4.9l-217.5,267.4c-2.1,2.5-1.7,6.3.9,8.4,1.1.9,2.4,1.3,3.7,1.3s3.4-.7,4.6-2.2ZM99.1,1068.6c-19.3,0-35.1-15.7-35.1-35.1s15.7-35.1,35.1-35.1,35.1,15.7,35.1,35.1-15.7,35.1-35.1,35.1ZM99.1,1016.3c-9.5,0-17.3,7.7-17.3,17.3s7.7,17.3,17.3,17.3,17.3-7.7,17.3-17.3-7.7-17.3-17.3-17.3ZM400.4,1056.8c-12.8,0-23.2-10.4-23.2-23.2s10.4-23.2,23.2-23.2,23.2,10.4,23.2,23.2-10.4,23.2-23.2,23.2ZM400.4,1022.3c-6.2,0-11.3,5.1-11.3,11.3s5.1,11.3,11.3,11.3,11.3-5.1,11.3-11.3-5.1-11.3-11.3-11.3ZM383.1,1033.6H124.9M379,1024.7h-246c1.4,5.3,1.6,11.2,0,17.8h246c-2.5-6.3-2.3-12.2,0-17.8ZM1208.7,769.7l1.7,14.1,95.4,88.1v223.6l19.2-41.8v-167.1l58.1,75.1,27.7,42.3,11.9,12.4-.6,13.5,96-121.9-27.7,24.3-49.1,29.9-88.6-65.5-28.2-25.4v-6.8l-86.4-82.4,344.9-202.1,51.4,125.9-4,111.2-18.6,20.3-11.3,23.7-85.2,142.8,2.5,44.5,112.2,195.6v113.1l-49.3,127.7-339.9-205.1,84.2-82.7,3.1-8.4,34.4-46.7,56.6-64.3,16.8-10,61.2-30.6-10-11.3-57.1,4-112.8,149.5-113.5,110.8,386.5,225.8,66.2-156v-122.6l-123.2-211.5,123.2-202.8v-121.2l-57.7-143.7-17.6-6.8-377.4,205.3,4.9,13.2ZM1948.9,1068.6c-19.3,0-35.1-15.7-35.1-35.1s15.7-35.1,35.1-35.1,35.1,15.7,35.1,35.1-15.7,35.1-35.1,35.1ZM1948.9,1016.3c-9.5,0-17.3,7.7-17.3,17.3s7.7,17.3,17.3,17.3,17.3-7.7,17.3-17.3-7.7-17.3-17.3-17.3ZM1609.7,841.8l-55.9,44.6-19.6,21.1,4.1,3.9,22.9-18.9,39.3-31.3,9.2-19.4ZM1490.3,1038.4h9.8l16.7,12.4,15-24.8-13.4-25.2-31.7,25.2,3.6,12.4ZM1611.9,650.7l-226.1,280.4M1390.4,934.9l226.1-280.4c2.1-2.6,1.7-6.3-.9-8.4-2.6-2.1-6.3-1.7-8.4.9l-226.1,280.4c-2.1,2.6-1.7,6.3.9,8.4,1.1.9,2.4,1.3,3.7,1.3s3.5-.8,4.6-2.2ZM1325,1043.7l58.1-82-8.5-11-49.6,65v28.1ZM1637.2,1333.6l-217.5-267.4M1640.9,1338.2c2.5-2.1,2.9-5.8.9-8.4l-217.5-267.4c-2.1-2.5-5.8-2.9-8.4-.9-2.5,2.1-2.9,5.8-.9,8.4l217.5,267.4c1.2,1.4,2.9,2.2,4.6,2.2s2.6-.4,3.7-1.3ZM1647.6,1056.8c-12.8,0-23.2-10.4-23.2-23.2s10.4-23.2,23.2-23.2,23.2,10.4,23.2,23.2-10.4,23.2-23.2,23.2ZM1647.6,1022.3c-6.2,0-11.3,5.1-11.3,11.3s5.1,11.3,11.3,11.3,11.3-5.1,11.3-11.3-5.1-11.3-11.3-11.3ZM1915,1024.7h-246c2.3,5.5,2.5,11.4,0,17.8h246c-1.5-5.9-1.5-11.9,0-17.8ZM456.8,445.5c141.6-143.7,329.6-228.4,529.2-238.7,8.2-.4,14.5-7.4,14.1-15.6-.4-8.2-7.4-14.5-15.6-14.1-207,10.6-402,98.5-548.8,247.5-5.8,5.8-5.7,15.3.1,21,2.9,2.9,6.7,4.3,10.4,4.3s7.7-1.5,10.6-4.4ZM417,488.9l1.1-1.3c5.3-6.2,4.6-15.6-1.6-21-6.2-5.3-15.6-4.6-21,1.6l-1.2,1.4c-5.3,6.2-4.6,15.6,1.7,20.9,2.8,2.4,6.2,3.6,9.6,3.6s8.4-1.8,11.3-5.2ZM386.3,527.1l1.1-1.5c5-6.5,3.7-15.9-2.9-20.8-6.5-5-15.9-3.7-20.8,2.9l-1.2,1.6c-4.9,6.6-3.6,15.9,2.9,20.8,2.7,2,5.8,3,8.9,3,4.5,0,9-2,11.9-5.9ZM354.8,571.9l.6-.9c4.5-6.9,2.6-16.1-4.3-20.6-6.9-4.5-16.1-2.6-20.6,4.3l-.6,1c-4.5,6.9-2.6,16.1,4.3,20.6,2.5,1.6,5.3,2.4,8.1,2.4,4.8,0,9.6-2.4,12.4-6.7ZM223.4,953.9c9.8-117.2,43.6-228.5,100.5-330.8,4-7.2,1.4-16.2-5.8-20.2-7.2-4-16.2-1.4-20.2,5.8-58.9,106-93.9,221.4-104.1,342.8-.7,8.2,5.4,15.4,13.6,16,.4,0,.8,0,1.3,0,7.6,0,14.1-5.9,14.8-13.6ZM395.2,1556.7c6.4-5.1,7.5-14.4,2.4-20.9-96.5-121.9-156.1-268.4-172.5-423.4-.9-8.2-8.2-14.1-16.3-13.2-8.2.9-14.1,8.2-13.2,16.3,17,160.6,78.8,312.3,178.8,438.7,2.9,3.7,7.3,5.6,11.7,5.6s6.5-1,9.2-3.2ZM1008.9,1857.3c.3-8.2-6-15.1-14.2-15.5-201.6-8.2-391.7-92.2-535.3-236.5-5.8-5.8-15.2-5.8-21,0-5.8,5.8-5.8,15.2,0,21,148.9,149.7,346,236.8,555.1,245.3.2,0,.4,0,.6,0,7.9,0,14.5-6.3,14.8-14.3ZM1061.9,1871.5c96.5-4,190.6-24.5,279.6-61,86.2-35.4,165.6-84.9,236-147.2,6.1-5.4,6.7-14.8,1.3-21-5.4-6.1-14.8-6.7-21-1.3-67.9,60.1-144.5,107.8-227.6,142-85.8,35.2-176.5,55-269.5,58.8-8.2.3-14.6,7.3-14.2,15.5.3,8,6.9,14.3,14.8,14.3s.4,0,.6,0ZM1624.5,1618.5l.7-.7c5.7-5.9,5.6-15.3-.3-21-5.9-5.7-15.3-5.6-21,.3l-.7.7c-5.7,5.9-5.6,15.3.3,21,2.9,2.8,6.6,4.2,10.3,4.2s7.8-1.5,10.7-4.5ZM1662.2,1576.9l.5-.6c5.3-6.2,4.6-15.6-1.7-20.9-6.2-5.3-15.6-4.6-20.9,1.7l-.6.7c-5.3,6.3-4.5,15.6,1.8,20.9,2.8,2.4,6.2,3.5,9.6,3.5s8.4-1.8,11.4-5.3ZM1697.6,1532.2l.5-.7c4.9-6.6,3.5-15.9-3.1-20.8-6.6-4.9-15.9-3.5-20.8,3.1l-.5.7c-4.9,6.6-3.5,15.9,3.1,20.8,2.7,2,5.8,2.9,8.8,2.9,4.6,0,9-2.1,12-6ZM1738.1,1472.2c66.7-108.4,107.5-227.8,121.2-354.8.9-8.2-5-15.5-13.2-16.4-8.2-.9-15.5,5-16.4,13.2-13.2,122.6-52.6,237.7-117,342.4-4.3,7-2.1,16.1,4.9,20.4,2.4,1.5,5.1,2.2,7.8,2.2,5,0,9.9-2.5,12.7-7.1ZM1847.2,959.6c8.2-.8,14.2-8,13.4-16.2-18.8-202-109.1-390.9-254.3-531.8-5.9-5.7-15.3-5.6-21,.3-5.7,5.9-5.6,15.3.3,21,140.1,136,227.2,318.2,245.4,513.2.7,7.7,7.2,13.5,14.8,13.5s.9,0,1.4,0ZM1576.8,404c5.4-6.2,4.7-15.6-1.5-21l-.2-.2c-6.1-5.4-15.5-4.9-21,1.2-5.5,6.1-4.9,15.5,1.2,21l.4.4c2.8,2.4,6.3,3.6,9.7,3.6s8.3-1.7,11.2-5.1ZM1545.6,377c5.1-6.4,4-15.8-2.5-20.9l-.5-.4c-6.4-5.1-15.8-4-20.9,2.4-5.1,6.4-4,15.8,2.4,20.9l.6.5c2.7,2.2,6,3.2,9.2,3.2s8.7-1.9,11.7-5.7ZM1515.8,353.7c4.8-6.6,3.3-15.9-3.3-20.8l-.5-.4c-6.7-4.8-16-3.2-20.7,3.5-4.8,6.7-3.2,16,3.5,20.7l.3.2c2.6,1.9,5.7,2.8,8.7,2.8,4.6,0,9.1-2.1,12-6.1ZM1480.2,328.4c4.4-6.9,2.5-16.1-4.4-20.5-125.9-81.1-271.4-126.5-420.9-131.4-8.2-.3-15.1,6.2-15.3,14.4-.3,8.2,6.2,15.1,14.4,15.3,144.1,4.7,284.4,48.5,405.8,126.7,2.5,1.6,5.3,2.4,8,2.4,4.9,0,9.7-2.4,12.5-6.8Z" fill="none"/>
    </clipPath>
    <linearGradient id="linear-gradient" x1="56.1" y1="1044.9" x2="1985.7" y2="1044.9" gradientUnits="userSpaceOnUse">
      <stop offset="0" stop-color="#15a9ef"/>
      <stop offset=".1" stop-color="#3c88dc"/>
      <stop offset=".3" stop-color="#6665c9"/>
      <stop offset=".5" stop-color="#8150bd"/>
      <stop offset=".5" stop-color="#8b48b9"/>
      <stop offset=".6" stop-color="#9045b7"/>
      <stop offset=".7" stop-color="#a13cb3"/>
      <stop offset=".8" stop-color="#bb2fac"/>
      <stop offset=".9" stop-color="#e11ca3"/>
      <stop offset="1" stop-color="#f9109d"/>
    </linearGradient>
    <clipPath id="clippath-1">
      <text transform="translate(418.7 1771)" fill="none" font-family="CircularStd-Book, &apos;Circular Std&apos;" font-size="50" letter-spacing=".4em"><tspan x="0" y="0" xml:space="preserve">EFFECT  · CREATE ·  CONNECT</tspan></text>
    </clipPath>
    <linearGradient id="linear-gradient1" x1="381.3" y1="1268" x2="1679.9" y2="1268" xlink:href="#linear-gradient"/>
    <linearGradient id="linear-gradient2" x1="865.7" y1="1609.8" x2="918.8" y2="1609.8" gradientUnits="userSpaceOnUse">
      <stop offset="0" stop-color="#656acc"/>
      <stop offset="1" stop-color="#b530a7"/>
    </linearGradient>
    <clipPath id="clippath-2">
      <path d="M1034.4,343.5c1.6,0,3.3.5,4.6,1.6l130,103.4c2.4,1.9,3.4,5,2.5,7.9l-56.4,196.5c-.6,2.2-2.2,4-4.3,4.9-2.1.9-4.5.8-6.5-.3l-81.8-44.7-77.8,44.6c-1.1.7-2.4,1-3.7,1s-1.9-.2-2.8-.5c-2.1-.9-3.8-2.7-4.4-4.9l-56.4-195.8c-.8-2.9.2-6.1,2.6-8l97.3-76.5c3.3-2.6,8-2,10.5,1.3s2,8-1.3,10.5l-93.3,73.4,52.4,181.8,73.2-41.9c2.3-1.3,5-1.3,7.3,0l77.3,42.2,52.4-182.7-126.1-100.3c-1.8-1.5-2.8-3.6-2.8-5.8M999.6,608.6l107.3-190.3h0c-3.9-3.1-1.4-1.1-3.2-2.5-2.4-1.9,1.3,1.1-1.8-1.4l-1.4-1.1-114.5,203.2M1034.4,343.4h-7.6v7.6l7.6-7.6ZM1020,1314.5v7.6h-7.6M1020,1314.5c0-2.2-1-4.4-2.8-5.8l-126.1-100.3,52.4-182.7,77.3,42.2c2.3,1.2,5.1,1.2,7.3,0l73.2-41.9,52.4,181.8-93.3,73.4c-3.3,2.6-3.8,7.3-1.3,10.5,2.6,3.3,7.3,3.8,10.5,1.3l97.3-76.5c2.4-1.9,3.4-5,2.6-8l-56.4-195.8c-.6-2.2-2.3-4-4.4-4.9-2.1-.9-4.5-.7-6.5.4l-77.8,44.6-81.8-44.7c-2-1.1-4.4-1.2-6.5-.3-2.1.9-3.7,2.7-4.3,4.9l-56.4,196.5c-.8,2.9.2,6,2.5,7.9l130,103.4c1.4,1.1,3,1.6,4.7,1.6M946.2,1252.2l118.4-210.1c1.1-1.9.4-4.4-1.5-5.4-1.9-1.1-4.4-.4-5.4,1.5l-117.8,209c6.3,5,3,2.4,6.3,5M903,651.5l-254-138.2-11.8,4.6-38.8,96.7v81.6l82.9,136.5-82.9,142.3v82.5l44.5,105,260.1-152-76.4-74.5-75.9-100.6-38.4-2.7-6.7,7.6,41.2,20.6,11.3,6.7,38.1,43.3,23.2,31.4,2.1,5.7,56.7,55.6-228.8,138-33.1-86v-76.1l75.5-131.6,1.7-30-57.4-96.1-7.6-16-12.5-13.7-2.7-74.8,34.6-84.7,232.1,136-58.1,55.5v4.6l-19,17.1-59.6,44.1-33.1-20.1-18.6-16.3,64.6,82.1-.4-9.1,8-8.4,18.6-28.5,39.1-50.5v112.5l12.9,28.1v-150.5l64.2-59.3,1.1-9.5,3.3-8.9ZM636,721.9l26.4,21.1,15.4,12.7,2.8-2.6-13.2-14.2-37.6-30,6.2,13ZM712.6,832.8l-21.3-16.9-9,16.9,10.1,16.7,11.2-8.4h6.6l2.4-8.4ZM780.5,769l-152.2-188.7M783,772.1c1.7-1.4,2-3.9.6-5.6l-152.2-188.7c-1.4-1.7-3.9-2-5.6-.6-1.7,1.4-2,3.9-.6,5.6l152.2,188.7c.8,1,1.9,1.5,3.1,1.5s1.8-.3,2.5-.9ZM821.4,825.8l-33.4-43.7-5.7,7.4,39.1,55.2v-18.9ZM757.7,859.9l-146.4,179.9M614.4,1042.4l146.4-179.9c1.4-1.7,1.1-4.2-.6-5.6-1.7-1.4-4.2-1.1-5.6.6l-146.4,179.9c-1.4,1.7-1.1,4.2.6,5.6.7.6,1.6.9,2.5.9s2.3-.5,3.1-1.5ZM401.5,861.5c-13,0-23.6-10.6-23.6-23.6s10.6-23.6,23.6-23.6,23.6,10.6,23.6,23.6-10.6,23.6-23.6,23.6ZM401.5,826.3c-6.4,0-11.6,5.2-11.6,11.6s5.2,11.6,11.6,11.6,11.6-5.2,11.6-11.6-5.2-11.6-11.6-11.6ZM604.3,853.6c-8.6,0-15.6-7-15.6-15.6s7-15.6,15.6-15.6,15.6,7,15.6,15.6-7,15.6-15.6,15.6ZM604.3,830.3c-4.2,0-7.6,3.4-7.6,7.6s3.4,7.6,7.6,7.6,7.6-3.4,7.6-7.6-3.4-7.6-7.6-7.6ZM592.7,837.9h-173.8M589.9,831.9h-165.5c1,3.6,1.1,7.5,0,12h165.5c-1.6-4.3-1.5-8.2,0-12ZM1148.3,660.3l1.1,9.5,64.2,59.3v150.5l12.9-28.1v-112.5l39.1,50.5,18.6,28.5,8,8.4-.4,9.1,64.6-82.1-18.6,16.3-33.1,20.1-59.6-44.1-19-17.1v-4.6l-58.1-55.5,232.1-136,34.6,84.7-2.7,74.8-12.5,13.7-7.6,16-57.4,96.1,1.7,30,75.5,131.6v76.1l-33.1,86-228.8-138,56.7-55.6,2.1-5.7,23.2-31.4,38.1-43.3,11.3-6.7,41.2-20.6-6.7-7.6-38.4,2.7-75.9,100.6-76.4,74.5,260.1,152,44.5-105v-82.5l-82.9-142.3,82.9-136.5v-81.6l-38.8-96.7-11.8-4.6-254,138.2,3.3,8.9ZM1646.5,861.5c-13,0-23.6-10.6-23.6-23.6s10.6-23.6,23.6-23.6,23.6,10.6,23.6,23.6-10.6,23.6-23.6,23.6ZM1646.5,826.3c-6.4,0-11.6,5.2-11.6,11.6s5.2,11.6,11.6,11.6,11.6-5.2,11.6-11.6-5.2-11.6-11.6-11.6ZM1418.2,708.9l-37.6,30-13.2,14.2,2.8,2.6,15.4-12.7,26.4-21.1,6.2-13ZM1337.8,841.2h6.6l11.2,8.4,10.1-16.7-9-16.9-21.3,16.9,2.4,8.4ZM1419.6,580.3l-152.2,188.7M1270.6,771.5l152.2-188.7c1.4-1.7,1.1-4.2-.6-5.6-1.7-1.4-4.2-1.1-5.6.6l-152.2,188.7c-1.4,1.7-1.1,4.2.6,5.6.7.6,1.6.9,2.5.9s2.3-.5,3.1-1.5ZM1226.6,844.7l39.1-55.2-5.7-7.4-33.4,43.7v18.9ZM1436.7,1039.9l-146.4-179.9M1439.2,1043c1.7-1.4,2-3.9.6-5.6l-146.4-179.9c-1.4-1.7-3.9-2-5.6-.6-1.7,1.4-2,3.9-.6,5.6l146.4,179.9c.8,1,1.9,1.5,3.1,1.5s1.8-.3,2.5-.9ZM1443.7,853.6c-8.6,0-15.6-7-15.6-15.6s7-15.6,15.6-15.6,15.6,7,15.6,15.6-7,15.6-15.6,15.6ZM1443.7,830.3c-4.2,0-7.6,3.4-7.6,7.6s3.4,7.6,7.6,7.6,7.6-3.4,7.6-7.6-3.4-7.6-7.6-7.6ZM1623.6,831.9h-165.5c1.5,3.7,1.7,7.7,0,12h165.5c-1-4-1-8,0-12ZM642.3,442.2c95.3-96.7,221.8-153.7,356.1-160.6,5.5-.3,9.8-5,9.5-10.5-.3-5.5-5-9.8-10.5-9.5-139.3,7.2-270.5,66.3-369.4,166.6-3.9,3.9-3.8,10.3,0,14.1,1.9,1.9,4.5,2.9,7,2.9s5.2-1,7.1-3ZM615.5,471.4l.8-.9c3.6-4.2,3.1-10.5-1.1-14.1-4.2-3.6-10.5-3.1-14.1,1.1l-.8.9c-3.6,4.2-3.1,10.5,1.1,14.1,1.9,1.6,4.2,2.4,6.5,2.4s5.6-1.2,7.6-3.5ZM594.8,497.1l.8-1c3.3-4.4,2.5-10.7-1.9-14-4.4-3.3-10.7-2.5-14,1.9l-.8,1.1c-3.3,4.4-2.4,10.7,2,14,1.8,1.4,3.9,2,6,2,3,0,6-1.4,8-4ZM573.7,527.2l.4-.6c3-4.6,1.7-10.8-2.9-13.8-4.6-3-10.8-1.7-13.8,2.9l-.4.7c-3,4.6-1.7,10.8,2.9,13.8,1.7,1.1,3.6,1.6,5.5,1.6,3.3,0,6.5-1.6,8.4-4.5ZM485.2,784.3c6.6-78.9,29.4-153.8,67.6-222.7,2.7-4.8.9-10.9-3.9-13.6-4.8-2.7-10.9-.9-13.6,3.9-39.6,71.4-63.2,149-70.1,230.7-.5,5.5,3.6,10.3,9.1,10.8.3,0,.6,0,.8,0,5.1,0,9.5-3.9,10-9.2ZM600.8,1190c4.3-3.4,5.1-9.7,1.6-14-64.9-82.1-105.1-180.6-116.1-284.9-.6-5.5-5.5-9.5-11-8.9-5.5.6-9.5,5.5-8.9,11,11.4,108.1,53,210.2,120.3,295.2,2,2.5,4.9,3.8,7.8,3.8s4.4-.7,6.2-2.2ZM1013.8,1392.3c.2-5.5-4.1-10.2-9.6-10.4-135.7-5.5-263.6-62.1-360.2-159.2-3.9-3.9-10.2-3.9-14.1,0s-3.9,10.2,0,14.1c100.2,100.7,232.9,159.3,373.6,165.1.1,0,.3,0,.4,0,5.3,0,9.8-4.2,10-9.6ZM1049.5,1401.9c65-2.7,128.3-16.5,188.2-41.1,58-23.8,111.5-57.2,158.8-99.1,4.1-3.7,4.5-10,.9-14.1-3.7-4.1-10-4.5-14.1-.9-45.7,40.4-97.2,72.6-153.2,95.5-57.7,23.7-118.8,37-181.4,39.6-5.5.2-9.8,4.9-9.6,10.4.2,5.4,4.6,9.6,10,9.6s.3,0,.4,0ZM1428.1,1231.6l.4-.5c3.8-4,3.7-10.3-.2-14.1-4-3.8-10.3-3.7-14.1.2l-.4.5c-3.8,4-3.7,10.3.2,14.1,1.9,1.9,4.4,2.8,7,2.8s5.2-1,7.2-3ZM1453.5,1203.6l.3-.4c3.6-4.2,3.1-10.5-1.1-14.1-4.2-3.6-10.5-3.1-14.1,1.1l-.4.5c-3.6,4.2-3,10.5,1.2,14.1,1.9,1.6,4.2,2.4,6.5,2.4s5.7-1.2,7.6-3.5ZM1477.3,1173.5l.4-.5c3.3-4.4,2.3-10.7-2.1-14-4.4-3.3-10.7-2.3-14,2.1l-.4.5c-3.3,4.4-2.3,10.7,2.1,14,1.8,1.3,3.9,2,5.9,2,3.1,0,6.1-1.4,8-4.1ZM1504.6,1133.1c44.9-73,72.3-153.3,81.6-238.8.6-5.5-3.4-10.4-8.9-11-5.5-.6-10.4,3.4-11,8.9-8.9,82.5-35.4,160-78.7,230.4-2.9,4.7-1.4,10.9,3.3,13.8,1.6,1,3.4,1.5,5.2,1.5,3.4,0,6.6-1.7,8.5-4.8ZM1578,788.2c5.5-.5,9.5-5.4,9-10.9-12.7-136-73.4-263-171.1-357.9-4-3.8-10.3-3.8-14.1.2-3.8,4-3.8,10.3.2,14.1,94.3,91.5,152.9,214.2,165.1,345.4.5,5.2,4.8,9.1,9.9,9.1s.6,0,.9,0ZM1396,414.2c3.6-4.2,3.2-10.5-1-14.1h-.1c-4.1-3.8-10.5-3.4-14.1.7-3.7,4.1-3.3,10.4.8,14.1l.3.3c1.9,1.6,4.2,2.5,6.6,2.5s5.6-1.2,7.5-3.4ZM1375,396c3.4-4.3,2.7-10.6-1.7-14l-.4-.3c-4.3-3.4-10.6-2.7-14,1.6-3.4,4.3-2.7,10.6,1.6,14l.4.3c1.8,1.4,4,2.2,6.2,2.2s5.9-1.3,7.9-3.8ZM1355,380.4c3.2-4.5,2.3-10.7-2.2-14l-.3-.3c-4.5-3.2-10.7-2.2-13.9,2.3-3.2,4.5-2.2,10.7,2.3,13.9l.2.2c1.8,1.3,3.8,1.9,5.9,1.9,3.1,0,6.1-1.4,8.1-4.1ZM1331,363.4c3-4.6,1.7-10.8-3-13.8-84.7-54.6-182.7-85.1-283.3-88.4-5.5-.2-10.1,4.1-10.3,9.7-.2,5.5,4.1,10.1,9.7,10.3,97,3.2,191.4,32.6,273.1,85.2,1.7,1.1,3.6,1.6,5.4,1.6,3.3,0,6.5-1.6,8.4-4.6Z" fill="none"/>
    </clipPath>
    <linearGradient id="linear-gradient3" x1="372.6" y1="845.6" x2="1671.2" y2="845.6" xlink:href="#linear-gradient"/>
  </defs>
  <g id="Layer_1" display="none">
    <image width="1254" height="1254" transform="scale(1.6)" xlink:href="../../../Downloads/ .png"/>
  </g>
  <g id="Layer_7">
    <polygon points="1024 733.7 771 879.8 771 1171.9 1024 1318 1277 1171.9 1277 879.8 1024 733.7" fill="#30345e"/>
    <polygon points="935.9 885.3 1162.6 1027.6 935.9 1165.6 935.9 885.3" fill="none" stroke="#fff" stroke-linecap="round" stroke-linejoin="round" stroke-width="18"/>
    <g clip-path="url(#clippath)">
      <rect x="56.1" y="101.5" width="1929.6" height="1886.7" fill="url(#linear-gradient)"/>
    </g>
    <g display="none">
      <g>
        <g>
          <path d="M922.8,813.1c-1.2,0-2.3-.2-3.4-.7-2.6-1.1-4.6-3.2-5.3-5.9l-68.7-238.5c-1-3.6.2-7.4,3.1-9.7l118.5-93.2c4-3.1,9.7-2.4,12.8,1.5s2.4,9.7-1.5,12.8l-113.6,89.4,63.8,221.4,89.1-51.1c2.8-1.6,6.1-1.6,8.9,0l94.1,51.4,63.9-222.5-153.6-122.2c-3.9-3.1-4.6-8.9-1.5-12.8,3.1-3.9,8.9-4.6,12.8-1.5l158.3,126c2.9,2.3,4.1,6.1,3.1,9.7l-68.7,239.3c-.8,2.7-2.7,4.8-5.3,5.9-2.6,1.1-5.5.9-7.9-.4l-99.7-54.4-94.8,54.3c-1.4.8-3,1.2-4.5,1.2Z"/>
          <path d="M977.2,777.7c-.8,0-1.6-.2-2.4-.6-2.3-1.3-3.2-4.3-1.9-6.6l148.4-263.3c1.3-2.3,4.3-3.2,6.6-1.9,2.3,1.3,3.2,4.3,1.9,6.6l-148.4,263.3c-.9,1.6-2.5,2.5-4.2,2.5Z"/>
        </g>
        <rect x="1027.4" y="429.5" width="9.2" height="9.2"/>
      </g>
      <g>
        <rect x="1009.9" y="1612.3" width="9.2" height="9.2" transform="translate(2029 3233.8) rotate(-180)"/>
        <g>
          <path d="M1009.9,1621.5c-2,0-4-.6-5.7-2l-158.3-126c-2.9-2.3-4.1-6.1-3.1-9.7l68.7-239.3c.8-2.7,2.7-4.8,5.3-5.9,2.6-1.1,5.5-.9,7.9.4l99.7,54.4,94.8-54.3c2.4-1.4,5.4-1.6,8-.5,2.6,1.1,4.6,3.2,5.3,5.9l68.7,238.5c1,3.6-.2,7.4-3.1,9.7l-118.5,93.2c-4,3.1-9.7,2.4-12.8-1.5-3.1-4-2.4-9.7,1.5-12.8l113.6-89.4-63.8-221.4-89.1,51.1c-2.8,1.6-6.1,1.6-8.9,0l-94.1-51.4-63.9,222.5,153.6,122.2c3.9,3.1,4.6,8.9,1.5,12.8-1.8,2.3-4.5,3.4-7.2,3.4Z"/>
          <path d="M920.9,1546.3c-.8,0-1.6-.2-2.4-.6-2.3-1.3-3.2-4.3-1.9-6.6l148.4-263.3c1.3-2.3,4.3-3.2,6.6-1.9,2.3,1.3,3.2,4.3,1.9,6.6l-148.4,263.3c-.9,1.6-2.5,2.5-4.2,2.5Z"/>
        </g>
      </g>
      <g>
        <g>
          <polygon points="876.6 804.7 567.2 636.4 552.8 642 505.5 759.8 505.5 859.2 606.5 1025.5 505.5 1198.9 505.5 1299.4 559.7 1427.3 876.6 1242.2 783.5 1151.4 691 1028.8 644.2 1025.5 636 1034.8 686.2 1059.9 700 1068 746.5 1120.7 774.7 1159 777.2 1165.9 846.2 1233.7 567.6 1401.8 527.2 1297.1 527.2 1204.4 619.2 1044.1 621.3 1007.6 551.4 890.5 542.1 871.1 526.9 854.4 523.6 763.2 565.7 660 848.5 825.7 777.7 893.3 777.7 898.8 754.5 919.6 681.9 973.3 641.6 948.8 619 928.9 697.6 1028.9 697.2 1017.8 706.9 1007.6 729.6 972.9 777.2 911.3 777.2 1048.3 793 1082.5 793 899.3 871.2 827.1 872.6 815.5 876.6 804.7"/>
          <path d="M559.4,1428.2l-54.6-128.7v-100.7h0c0-.1,100.8-173.2,100.8-173.2l-100.9-166.1v-99.8s47.4-118.1,47.4-118.1l14.9-5.8h.2c0,.1,309.8,168.7,309.8,168.7l-4.2,11.2-1.4,11.7-.2.2-78,72v185.8l-17-37v-135.2l-46.6,60.1-22.6,34.7-9.6,10.1.5,12.7-79.8-101.4.9-.8,22.7,19.9,39.8,24.3,72.3-53.4,22.9-20.6v-5.5l.2-.2,70.2-67-281.5-164.9-41.8,102.4,3.2,90.8,15.2,16.6,9.3,19.4,69.9,117.2-2.1,36.8h0c0,.1-91.9,160.3-91.9,160.3v92.4l40.1,103.9,277.4-167.4-68.6-67.3-2.5-6.9-28.2-38.2-46.3-52.6-13.7-8.1-50.9-25.4,8.9-10.1,47.4,3.3.2.2,92.5,122.6,93.6,91.3-.7.4-317.4,185.5ZM506.1,1299.3l53.9,127.1,315.6-184.4-92.5-90.2-92.4-122.4-46.3-3.2-7.4,8.5,49.5,24.7,14,8.3,46.4,52.7,28.4,38.5,2.5,6.8,69.5,68.2-.7.4-279.3,168.5-40.7-105.6v-92.9l92-160.4,2.1-36.2-69.8-116.9-9.2-19.4-15.4-16.8v-.2s-3.3-91.3-3.3-91.3h0c0-.1,42.4-104,42.4-104l.6.4,283.5,166.1-71.2,67.9v5.6l-23.3,21-73,54-40.6-24.7-17.8-15.6,73.4,93.3-.4-9.5,9.9-10.4,22.6-34.6,48.8-63v138.6l14.5,31.6v-180.7l78.2-72.2,1.4-11.5,3.8-10.3-308.7-167.9-13.9,5.4-47.1,117.5v99.1l101.1,166.4-.2.3-100.9,173.3v100.2Z"/>
        </g>
        <path d="M265.8,1060.6c-15.9,0-28.8-12.9-28.8-28.8s12.9-28.8,28.8-28.8,28.8,12.9,28.8,28.8-12.9,28.8-28.8,28.8ZM265.8,1017.7c-7.8,0-14.1,6.3-14.1,14.1s6.3,14.1,14.1,14.1,14.1-6.3,14.1-14.1-6.3-14.1-14.1-14.1Z"/>
        <g>
          <polygon points="543.8 874.6 589.6 911.1 605.7 928.5 602.4 931.7 583.6 916.1 551.4 890.5 543.8 874.6"/>
          <path d="M602.4,932.5l-19.2-15.9-32.3-25.7-8.8-18.4,47.9,38.2,16.6,17.8-4.2,4ZM551.9,890.1l32.1,25.6,18.3,15.2,2.6-2.4-15.7-16.9-43.7-34.8,6.4,13.4Z"/>
        </g>
        <g>
          <polygon points="644.7 1025.6 618.7 1005 607.7 1025.6 620 1046 633.7 1035.8 641.7 1035.8 644.7 1025.6"/>
          <path d="M619.8,1046.9l-12.9-21.2,11.5-21.6,26.9,21.3-3.2,11h-8.3l-14,10.5ZM608.4,1025.6l11.8,19.5,13.3-9.9h7.8l2.7-9.4-25.1-19.9-10.5,19.7Z"/>
        </g>
        <g>
          <line x1="727.4" y1="947.9" x2="542.1" y2="718"/>
          <path d="M727.4,952.7c-1.4,0-2.8-.6-3.8-1.8l-185.3-229.9c-1.7-2.1-1.4-5.2.7-6.9,2.1-1.7,5.2-1.4,6.9.7l185.3,229.9c1.7,2.1,1.4,5.2-.7,6.9-.9.7-2,1.1-3.1,1.1Z"/>
        </g>
        <g>
          <polygon points="777.2 1017.1 736.5 963.8 729.6 972.9 777.2 1040.1 777.2 1017.1"/>
          <path d="M777.8,1042l-49-69.2,7.8-10,41.3,54.1v25.1ZM730.3,972.9l46.3,65.3v-20.9l-40.1-52.5-6.2,8Z"/>
        </g>
        <g>
          <line x1="521.3" y1="1277.8" x2="699.7" y2="1058.6"/>
          <path d="M521.3,1282.7c-1.1,0-2.2-.4-3.1-1.1-2.1-1.7-2.4-4.8-.7-6.9l178.3-219.2c1.7-2.1,4.8-2.4,6.9-.7,2.1,1.7,2.4,4.8.7,6.9l-178.3,219.2c-1,1.2-2.4,1.8-3.8,1.8Z"/>
        </g>
        <path d="M512.8,1050.9c-10.5,0-19-8.5-19-19s8.5-19,19-19,19,8.5,19,19-8.5,19-19,19ZM512.8,1022.6c-5.1,0-9.3,4.2-9.3,9.3s4.2,9.3,9.3,9.3,9.3-4.2,9.3-9.3-4.2-9.3-9.3-9.3Z"/>
        <g>
          <line x1="498.6" y1="1031.8" x2="287" y2="1031.8"/>
          <rect x="287" y="1024.5" width="211.7" height="14.6"/>
        </g>
      </g>
      <g>
        <g>
          <polygon points="1171.4 804.7 1480.8 636.4 1495.2 642 1542.5 759.8 1542.5 859.2 1441.5 1025.5 1542.5 1198.9 1542.5 1299.4 1488.3 1427.3 1171.4 1242.2 1264.5 1151.4 1357 1028.8 1403.8 1025.5 1412 1034.8 1361.8 1059.9 1348 1068 1301.5 1120.7 1273.3 1159 1270.8 1165.9 1201.8 1233.7 1480.4 1401.8 1520.8 1297.1 1520.8 1204.4 1428.8 1044.1 1426.7 1007.6 1496.6 890.5 1505.9 871.1 1521.1 854.4 1524.4 763.2 1482.3 660 1199.5 825.7 1270.3 893.3 1270.3 898.8 1293.5 919.6 1366.1 973.3 1406.4 948.8 1429 928.9 1350.4 1028.9 1350.8 1017.8 1341.1 1007.6 1318.4 972.9 1270.8 911.3 1270.8 1048.3 1255 1082.5 1255 899.3 1176.8 827.1 1175.4 815.5 1171.4 804.7"/>
          <path d="M1488.6,1428.2l-.6-.3-317.5-185.5,93.6-91.4,92.6-122.7,47.4-3.3,8.9,10.1-50.9,25.5-13.7,8.1-46.4,52.6-28.2,38.2-2.6,7-68.5,67.2,277.4,167.4,40.1-103.9v-92.4l-92-160.3-2.1-36.8v-.2c0,0,70-117.1,70-117.1l9.3-19.5,15.1-16.5,3.2-90.8-41.8-102.4-281.5,164.9,70.4,67.2v5.5l22.9,20.6,72.3,53.4,39.9-24.3,22.6-19.8.9.8-79.8,101.4.5-12.7-9.5-10-22.7-34.8-46.5-60.1v135.3h0c0,.1-16.9,36.9-16.9,36.9v-185.8l-78.2-72.2-1.4-11.7-4.2-11.2.5-.3,309.6-168.5,14.9,5.8v.2c0,0,47.4,117.9,47.4,117.9v99.7h0c0,.1-100.8,166.1-100.8,166.1l100.9,173.2v100.9s-54.6,128.5-54.6,128.5ZM1172.4,1242l315.6,184.4,53.9-127.1v-100.2l-101.1-173.6.2-.3,100.9-166.1v-99.1l-47.1-117.5-13.9-5.4-308.7,167.9,3.9,10.4,1.4,11.3,78.2,72.2v180.7l14.5-31.6v-138.6l48.8,63,22.7,34.7,9.8,10.3-.4,9.5,73.4-93.3-17.7,15.5-40.7,24.8-.3-.2-72.7-53.7-23.4-21v-5.6l-71.2-67.9.7-.4,283.4-166,42.4,104h0c0,.1-3.2,91.5-3.2,91.5l-15.4,16.8-9.2,19.4-69.8,117,2.1,36.2,92,160.4v93.1s-40.7,105.4-40.7,105.4l-.6-.4-279.4-168.6,69.5-68.2,2.5-6.9,28.2-38.3,46.5-52.8,13.9-8.2,49.5-24.8-7.4-8.5-46.3,3.2-92.3,122.4-92.5,90.3Z"/>
        </g>
        <path d="M1782.2,1060.6c-15.9,0-28.8-12.9-28.8-28.8s12.9-28.8,28.8-28.8,28.8,12.9,28.8,28.8-12.9,28.8-28.8,28.8ZM1782.2,1017.7c-7.8,0-14.1,6.3-14.1,14.1s6.3,14.1,14.1,14.1,14.1-6.3,14.1-14.1-6.3-14.1-14.1-14.1Z"/>
        <g>
          <polygon points="1504.2 874.6 1458.4 911.1 1442.3 928.5 1445.6 931.7 1464.4 916.1 1496.6 890.5 1504.2 874.6"/>
          <path d="M1445.6,932.5l-4.2-4,16.5-17.8,48-38.2-8.8,18.4h-.1c0,0-32.2,25.7-32.2,25.7l-19.2,15.9ZM1443.1,928.4l2.6,2.4,18.3-15.2,32.1-25.6,6.4-13.4-43.8,34.9-15.6,16.8Z"/>
        </g>
        <g>
          <polygon points="1403.3 1025.6 1429.3 1005 1440.3 1025.6 1428 1046 1414.3 1035.8 1406.3 1035.8 1403.3 1025.6"/>
          <path d="M1428.2,1046.9l-14-10.5h-8.3l-3.2-11,26.9-21.3,11.5,21.6-12.9,21.2ZM1406.7,1035.2h7.8l13.3,9.9,11.8-19.5-10.5-19.7-25.1,19.9,2.7,9.4Z"/>
        </g>
        <g>
          <line x1="1320.6" y1="947.9" x2="1505.9" y2="718"/>
          <path d="M1320.6,952.7c-1.1,0-2.2-.4-3.1-1.1-2.1-1.7-2.4-4.8-.7-6.9l185.3-229.9c1.7-2.1,4.8-2.4,6.9-.7,2.1,1.7,2.4,4.8.7,6.9l-185.3,229.9c-1,1.2-2.4,1.8-3.8,1.8Z"/>
        </g>
        <g>
          <polygon points="1270.8 1017.1 1311.4 963.8 1318.4 972.9 1270.8 1040.1 1270.8 1017.1"/>
          <path d="M1270.2,1042v-25.1l41.3-54.1,7.8,10-.3.4-48.8,68.8ZM1271.4,1017.3v20.9l46.3-65.3-6.2-8-40.1,52.5Z"/>
        </g>
        <g>
          <line x1="1526.7" y1="1277.8" x2="1348.3" y2="1058.6"/>
          <path d="M1526.7,1282.7c-1.4,0-2.8-.6-3.8-1.8l-178.3-219.2c-1.7-2.1-1.4-5.2.7-6.9,2.1-1.7,5.2-1.4,6.9.7l178.3,219.2c1.7,2.1,1.4,5.2-.7,6.9-.9.7-2,1.1-3.1,1.1Z"/>
        </g>
        <path d="M1535.2,1050.9c-10.5,0-19-8.5-19-19s8.5-19,19-19,19,8.5,19,19-8.5,19-19,19ZM1535.2,1022.6c-5.1,0-9.3,4.2-9.3,9.3s4.2,9.3,9.3,9.3,9.3-4.2,9.3-9.3-4.2-9.3-9.3-9.3Z"/>
        <g>
          <line x1="1549.4" y1="1031.8" x2="1761" y2="1031.8"/>
          <rect x="1549.4" y="1024.5" width="211.7" height="14.6"/>
        </g>
      </g>
      <g>
        <path d="M550.4,553.4c-3.1,0-6.2-1.2-8.6-3.5-4.8-4.7-4.8-12.4-.1-17.2,120.4-122.1,280.2-194.2,449.9-202.9,6.7-.3,12.4,4.8,12.8,11.5.3,6.7-4.8,12.4-11.5,12.8-163.6,8.4-317.7,77.9-433.8,195.7-2.4,2.4-5.5,3.6-8.7,3.6Z"/>
        <path d="M517.1,589.6c-2.8,0-5.6-1-7.9-2.9-5.1-4.4-5.7-12.1-1.4-17.2l1-1.1c4.4-5.1,12.1-5.7,17.2-1.3,5.1,4.4,5.7,12.1,1.3,17.2l-.9,1.1c-2.4,2.8-5.8,4.3-9.3,4.3Z"/>
        <path d="M491.5,621.5c-2.6,0-5.1-.8-7.3-2.5-5.4-4.1-6.4-11.7-2.4-17.1l1-1.3c4.1-5.4,11.7-6.4,17.1-2.3,5.4,4.1,6.4,11.7,2.3,17.1l-.9,1.2c-2.4,3.2-6,4.8-9.7,4.8Z"/>
        <path d="M465.2,658.9c-2.3,0-4.6-.6-6.7-2-5.6-3.7-7.2-11.2-3.5-16.9l.5-.8c3.7-5.6,11.2-7.2,16.9-3.5,5.6,3.7,7.2,11.2,3.5,16.9l-.5.8c-2.3,3.6-6.2,5.5-10.2,5.5Z"/>
        <path d="M355.6,977.7c-.3,0-.7,0-1,0-6.7-.6-11.7-6.5-11.1-13.2,8.3-99.5,37.1-194.1,85.4-281,3.3-5.9,10.7-8,16.6-4.7,5.9,3.3,8,10.7,4.7,16.6-46.6,83.9-74.3,175.1-82.4,271.2-.5,6.4-5.9,11.2-12.1,11.2Z"/>
        <path d="M501,1463.3c-3.6,0-7.2-1.6-9.6-4.6-81.9-103.6-132.6-228-146.5-359.6-.7-6.7,4.1-12.7,10.8-13.4,6.7-.7,12.7,4.1,13.4,10.8,13.4,127.1,62.3,247.1,141.4,347.1,4.2,5.3,3.3,12.9-2,17.1-2.2,1.8-4.9,2.6-7.5,2.6Z"/>
        <path d="M999.4,1718.8c-.2,0-.3,0-.5,0-171.4-7-333.1-78.4-455.1-201.1-4.7-4.8-4.7-12.5,0-17.2,4.8-4.7,12.5-4.7,17.2,0,117.7,118.3,273.5,187.2,438.8,193.9,6.7.3,11.9,5.9,11.7,12.7-.3,6.6-5.7,11.7-12.2,11.7Z"/>
        <path d="M1054.6,1718.8c-6.5,0-11.9-5.1-12.2-11.7-.3-6.7,4.9-12.4,11.7-12.7,76.3-3.1,150.6-19.4,221-48.2,68.2-28,130.9-67.1,186.6-116.4,5-4.5,12.7-4,17.2,1.1,4.5,5,4,12.7-1.1,17.2-57.7,51-122.8,91.6-193.5,120.7-73,30-150.1,46.8-229.2,50-.2,0-.3,0-.5,0Z"/>
        <path d="M1507.5,1515c-3,0-6.1-1.1-8.5-3.4-4.8-4.7-5-12.4-.3-17.2l.5-.6c4.7-4.8,12.4-5,17.2-.3,4.8,4.7,5,12.4.3,17.2l-.5.6c-2.4,2.5-5.6,3.7-8.8,3.7Z"/>
        <path d="M1537.9,1481.5c-2.8,0-5.6-.9-7.9-2.9-5.1-4.3-5.8-12-1.4-17.2l.5-.6c4.4-5.1,12.1-5.7,17.2-1.4,5.1,4.4,5.7,12,1.4,17.2l-.4.5c-2.4,2.8-5.8,4.3-9.3,4.3Z"/>
        <path d="M1566.4,1445.5c-2.5,0-5.1-.8-7.2-2.4-5.4-4-6.6-11.6-2.6-17l.4-.6c4-5.4,11.6-6.5,17-2.6,5.4,4,6.6,11.6,2.6,17l-.4.6c-2.4,3.2-6.1,4.9-9.8,4.9Z"/>
        <path d="M1599,1397.2c-2.2,0-4.4-.6-6.4-1.8-5.7-3.5-7.5-11-4-16.8,52.8-85.8,85-180.2,95.9-280.7.7-6.7,6.7-11.5,13.4-10.8,6.7.7,11.5,6.7,10.8,13.4-11.2,104.1-44.7,201.9-99.4,290.8-2.3,3.7-6.3,5.8-10.4,5.8Z"/>
        <path d="M1697.7,971.2c-6.2,0-11.5-4.7-12.1-11.1-14.9-159.8-86.3-309.2-201.1-420.7-4.8-4.7-4.9-12.4-.3-17.2,4.7-4.8,12.4-4.9,17.2-.3,119,115.5,193,270.3,208.4,435.9.6,6.7-4.3,12.6-11,13.3-.4,0-.8,0-1.1,0Z"/>
        <path d="M1468,519.9c-2.8,0-5.7-1-8-3l-.4-.3c-5-4.5-5.5-12.2-1-17.2,4.5-5,12.2-5.5,17.2-1l.2.2c5.1,4.4,5.6,12.1,1.2,17.2-2.4,2.8-5.8,4.2-9.2,4.2Z"/>
        <path d="M1442,498.2c-2.6,0-5.3-.9-7.5-2.6l-.5-.4c-5.3-4.2-6.2-11.8-2-17.1,4.2-5.3,11.8-6.2,17.1-2l.5.4c5.3,4.2,6.2,11.8,2,17.1-2.4,3-6,4.6-9.6,4.6Z"/>
        <path d="M1417.3,479.5c-2.5,0-5-.8-7.1-2.3l-.3-.2c-5.5-3.9-6.7-11.5-2.8-17,3.9-5.5,11.5-6.7,17-2.8l.4.3c5.4,4,6.7,11.6,2.7,17-2.4,3.3-6.1,5-9.9,5Z"/>
        <path d="M1387.8,459.4c-2.3,0-4.5-.6-6.6-1.9-99.5-64.1-214.5-100-332.6-103.8-6.7-.2-12-5.8-11.8-12.6.2-6.7,5.9-12,12.6-11.8,122.5,4,241.8,41.2,345,107.7,5.7,3.6,7.3,11.2,3.6,16.8-2.3,3.6-6.2,5.6-10.3,5.6Z"/>
      </g>
    </g>
    <path d="M1018,1741.6"/>
    <line x1="1137.7" y1="402.5" x2="1147.1" y2="410"/>
  </g>
  <g id="Layer_6" display="none">
    <g clip-path="url(#clippath-1)">
      <rect x="381.3" y="633.2" width="1298.6" height="1269.7" fill="url(#linear-gradient1)"/>
    </g>
    <g>
      <polygon points="891.9 1584.7 865.7 1634.8 918.8 1634.8 891.9 1584.7" fill="url(#linear-gradient2)"/>
      <g>
        <polygon points="291 1493.4 291 1655.1 316.6 1655.1 316.6 1587.3 333.2 1587.3 426.6 1655.1 470.9 1655.1 357 1574.3 470.9 1493.4 425.7 1493.4 333.2 1561.5 316.9 1561.5 316.9 1493.4 291 1493.4" fill="#0a1f39"/>
        <path d="M670.8,1493.2h-116.8v162h123c30.3,0,57-37,57-55v-45.6c0-34.4-35.4-61.4-63.2-61.4ZM709,1591.4c0,15.7-16,38.5-40.7,38.5h-88.3v-110.9h88.3c25.9,0,40.7,24.2,40.7,40.4v31.9Z" fill="#0a1f39"/>
        <polygon points="795.3 1655.1 882.2 1492.2 902.6 1492.2 988.5 1655.1 958.5 1655.1 891.9 1530.2 824.6 1655.1 795.3 1655.1" fill="#0a1f39"/>
        <polygon points="1066.5 1655.1 1066.5 1492.2 1091.3 1492.2 1218.6 1618.2 1218.6 1492.2 1243.8 1492.2 1243.8 1655.1 1218.6 1655.1 1092.7 1532.9 1092.7 1655.1 1066.5 1655.1" fill="#0a1f39"/>
        <polygon points="1330.1 1492.2 1330.1 1655.1 1356.1 1655.1 1356.1 1535.3 1419.4 1607.7 1434.1 1607.7 1495.3 1536 1495.3 1655.1 1523.4 1655.1 1523.4 1492.2 1496.7 1492.2 1426.8 1573.7 1356.1 1492.2 1330.1 1492.2" fill="#0a1f39"/>
        <path d="M1606,1492.2v107.5c0,25.6,19.5,55.4,51.2,55.4h76.3c31.5,0,49-27.7,49-54.3v-108.6s-25.6,0-25.6,0v113.2c0,12.6-14,25-26.2,25h-71.2c-15.5,0-26.8-14-26.8-26.8v-111.4h-26.8Z" fill="#0a1f39"/>
      </g>
    </g>
  </g>
  <g id="Layer_4" display="none">
    <g id="Layer_5">
      <polygon points="1024 636.1 853.7 734.4 853.7 931 1024 1029.3 1194.3 931 1194.3 734.4 1024 636.1" fill="#30345e"/>
      <polygon points="964.7 738.1 1117.3 833.9 964.7 926.8 964.7 738.1" fill="none" stroke="#fff" stroke-linecap="round" stroke-linejoin="round" stroke-width="18"/>
    </g>
    <g id="Layer_2">
      <g clip-path="url(#clippath-2)">
        <rect x="372.6" y="210.7" width="1298.6" height="1269.7" fill="url(#linear-gradient3)"/>
      </g>
      <g display="none">
        <g>
          <g>
            <path d="M940.9,658.4c-1,0-1.9-.2-2.8-.5-2.1-.9-3.8-2.7-4.4-4.9l-56.4-195.8c-.8-2.9.2-6.1,2.6-8l97.3-76.5c3.3-2.6,8-2,10.5,1.3s2,8-1.3,10.5l-93.3,73.4,52.4,181.8,73.2-41.9c2.3-1.3,5-1.3,7.3,0l77.3,42.2,52.4-182.7-126.1-100.3c-3.2-2.6-3.8-7.3-1.2-10.5,2.6-3.2,7.3-3.8,10.5-1.2l130,103.4c2.4,1.9,3.4,5,2.5,7.9l-56.4,196.5c-.6,2.2-2.2,4-4.3,4.9-2.1.9-4.5.8-6.5-.3l-81.8-44.7-77.8,44.6c-1.1.7-2.4,1-3.7,1Z"/>
            <path d="M985.6,629.3c-.7,0-1.3-.2-2-.5-1.9-1.1-2.6-3.5-1.5-5.4l121.8-216.1c1.1-1.9,3.5-2.6,5.4-1.5,1.9,1.1,2.6,3.5,1.5,5.4l-121.8,216.1c-.7,1.3-2.1,2-3.5,2Z"/>
          </g>
          <rect x="1026.8" y="343.4" width="7.6" height="7.6"/>
        </g>
        <g>
          <rect x="1012.4" y="1314.5" width="7.6" height="7.6" transform="translate(2032.4 2636.5) rotate(-180)"/>
          <g>
            <path d="M1012.5,1322c-1.6,0-3.3-.5-4.7-1.6l-130-103.4c-2.4-1.9-3.4-5-2.5-7.9l56.4-196.5c.6-2.2,2.2-4,4.3-4.9,2.1-.9,4.5-.8,6.5.3l81.8,44.7,77.8-44.6c2-1.1,4.4-1.3,6.5-.4,2.1.9,3.8,2.7,4.4,4.9l56.4,195.8c.8,2.9-.2,6.1-2.6,8l-97.3,76.5c-3.3,2.6-8,2-10.5-1.3-2.6-3.3-2-8,1.3-10.5l93.3-73.4-52.4-181.8-73.2,41.9c-2.3,1.3-5,1.3-7.3,0l-77.3-42.2-52.4,182.7,126.1,100.3c3.2,2.6,3.8,7.3,1.2,10.5-1.5,1.9-3.7,2.8-5.9,2.8Z"/>
            <path d="M939.3,1260.3c-.7,0-1.3-.2-2-.5-1.9-1.1-2.6-3.5-1.5-5.4l121.8-216.1c1.1-1.9,3.5-2.6,5.4-1.5,1.9,1.1,2.6,3.5,1.5,5.4l-121.8,216.1c-.7,1.3-2.1,2-3.5,2Z"/>
          </g>
        </g>
        <g>
          <g>
            <polygon points="903 651.5 649 513.3 637.1 517.9 598.3 614.6 598.3 696.2 681.2 832.7 598.3 975.1 598.3 1057.6 642.9 1162.6 903 1010.6 826.6 936.1 750.6 835.4 712.2 832.7 705.5 840.3 746.7 861 758 867.6 796.2 910.9 819.3 942.3 821.4 948 878.1 1003.6 649.3 1141.7 616.1 1055.7 616.1 979.6 691.7 848 693.4 818 636 721.9 628.4 705.9 615.9 692.3 613.2 617.4 647.8 532.7 879.9 668.7 821.8 724.2 821.8 728.7 802.8 745.8 743.1 789.9 710.1 769.8 691.5 753.4 756.1 835.5 755.7 826.4 763.7 818 782.3 789.5 821.4 739 821.4 851.5 834.3 879.6 834.3 729.1 898.5 669.8 899.7 660.3 903 651.5"/>
            <path d="M642.6,1163.3l-44.8-105.7v-82.7h0c0-.1,82.8-142.2,82.8-142.2l-82.8-136.4v-81.9s38.9-96.9,38.9-96.9l12.3-4.8h.2c0,.1,254.4,138.5,254.4,138.5l-3.4,9.2-1.2,9.6h-.1c0,.1-64,59.2-64,59.2v152.5l-13.9-30.4v-111l-38.2,49.4-18.6,28.5-7.9,8.3.4,10.5-65.5-83.3.7-.7,18.6,16.3,32.7,19.9,59.4-43.9,18.8-16.9v-4.6h.2c0-.1,57.6-55.2,57.6-55.2l-231.1-135.4-34.3,84.1,2.6,74.6,12.5,13.7,7.6,16,57.4,96.2-1.7,30.2h0c0,.1-75.5,131.6-75.5,131.6v75.9l32.9,85.3,227.7-137.4-56.3-55.3-2.1-5.7-23.1-31.4-38-43.2-11.3-6.7-41.8-20.9,7.3-8.3,38.9,2.7v.2c.1,0,76.1,100.6,76.1,100.6l76.8,75-.6.3-260.6,152.3ZM598.8,1057.5l44.3,104.4,259.1-151.4-75.9-74.1-75.8-100.5-38-2.7-6.1,6.9,40.6,20.3,11.5,6.8,38.1,43.3,23.3,31.6,2,5.6,57,56-.6.3-229.3,138.4-33.4-86.7v-76.2l75.5-131.6,1.7-29.7-57.3-96-7.6-15.9-12.6-13.8v-.2s-2.7-75-2.7-75h0c0,0,34.8-85.4,34.8-85.4l.5.3,232.7,136.4-58.5,55.8v4.6l-19.2,17.2-60,44.3-33.3-20.3-14.6-12.8,60.3,76.6-.3-7.8,8.1-8.5,18.6-28.4,40.1-51.7v113.8l11.9,25.9v-148.4l64.2-59.3,1.1-9.4,3.1-8.5-253.4-137.9-11.4,4.4-38.7,96.4v81.4l83,136.6v.3c-.1,0-83,142.2-83,142.2v82.3Z"/>
          </g>
          <path d="M401.5,861.5c-13,0-23.6-10.6-23.6-23.6s10.6-23.6,23.6-23.6,23.6,10.6,23.6,23.6-10.6,23.6-23.6,23.6ZM401.5,826.3c-6.4,0-11.6,5.2-11.6,11.6s5.2,11.6,11.6,11.6,11.6-5.2,11.6-11.6-5.2-11.6-11.6-11.6Z"/>
          <g>
            <polygon points="629.8 708.9 667.4 738.8 680.6 753.1 677.8 755.7 662.5 742.9 636 721.9 629.8 708.9"/>
            <path d="M677.9,756.4l-15.7-13-26.5-21.1-7.2-15.1,39.3,31.3,13.6,14.6-3.5,3.3ZM636.4,721.6l26.4,21,15.1,12.5,2.1-2-12.9-13.9-35.9-28.6,5.2,11Z"/>
          </g>
          <g>
            <polygon points="712.6 832.8 691.2 815.9 682.2 832.8 692.3 849.6 703.6 841.2 710.2 841.2 712.6 832.8"/>
            <path d="M692.2,850.3l-10.6-17.4,9.4-17.7,22.1,17.5-2.6,9h-6.8l-11.5,8.6ZM682.8,832.8l9.7,16,10.9-8.1h6.4l2.2-7.7-20.6-16.4-8.6,16.2Z"/>
          </g>
          <g>
            <line x1="780.5" y1="769" x2="628.4" y2="580.3"/>
            <path d="M780.5,773c-1.2,0-2.3-.5-3.1-1.5l-152.2-188.7c-1.4-1.7-1.1-4.2.6-5.6,1.7-1.4,4.2-1.1,5.6.6l152.2,188.7c1.4,1.7,1.1,4.2-.6,5.6-.7.6-1.6.9-2.5.9Z"/>
          </g>
          <g>
            <polygon points="821.4 825.8 788 782.1 782.3 789.5 821.4 844.7 821.4 825.8"/>
            <path d="M821.9,846.3l-40.3-56.8,6.4-8.2,33.9,44.4v20.6ZM782.9,789.5l38,53.6v-17.1l-32.9-43.1-5.1,6.6Z"/>
          </g>
          <g>
            <line x1="611.3" y1="1039.9" x2="757.7" y2="859.9"/>
            <path d="M611.3,1043.9c-.9,0-1.8-.3-2.5-.9-1.7-1.4-2-3.9-.6-5.6l146.4-179.9c1.4-1.7,3.9-2,5.6-.6,1.7,1.4,2,3.9.6,5.6l-146.4,179.9c-.8,1-1.9,1.5-3.1,1.5Z"/>
          </g>
          <path d="M604.3,853.6c-8.6,0-15.6-7-15.6-15.6s7-15.6,15.6-15.6,15.6,7,15.6,15.6-7,15.6-15.6,15.6ZM604.3,830.3c-4.2,0-7.6,3.4-7.6,7.6s3.4,7.6,7.6,7.6,7.6-3.4,7.6-7.6-3.4-7.6-7.6-7.6Z"/>
          <g>
            <line x1="592.7" y1="837.9" x2="418.9" y2="837.9"/>
            <rect x="418.9" y="831.9" width="173.8" height="12"/>
          </g>
        </g>
        <g>
          <g>
            <polygon points="1145 651.5 1399 513.3 1410.9 517.9 1449.7 614.6 1449.7 696.2 1366.8 832.7 1449.7 975.1 1449.7 1057.6 1405.1 1162.6 1145 1010.6 1221.4 936.1 1297.4 835.4 1335.8 832.7 1342.5 840.3 1301.3 861 1290 867.6 1251.8 910.9 1228.7 942.3 1226.6 948 1169.9 1003.6 1398.7 1141.7 1431.9 1055.7 1431.9 979.6 1356.3 848 1354.6 818 1412 721.9 1419.6 705.9 1432.1 692.3 1434.8 617.4 1400.2 532.7 1168.1 668.7 1226.2 724.2 1226.2 728.7 1245.2 745.8 1304.9 789.9 1337.9 769.8 1356.5 753.4 1291.9 835.5 1292.3 826.4 1284.3 818 1265.7 789.5 1226.6 739 1226.6 851.5 1213.7 879.6 1213.7 729.1 1149.5 669.8 1148.3 660.3 1145 651.5"/>
            <path d="M1405.4,1163.3l-.5-.3-260.7-152.3,76.9-75,76-100.8,38.9-2.7,7.3,8.3-41.8,20.9-11.2,6.6-38.1,43.2-23.1,31.3-2.2,5.8-56.2,55.2,227.7,137.4,32.9-85.3v-75.9l-75.5-131.6-1.7-30.2h0c0-.1,57.4-96.3,57.4-96.3l7.7-16,12.4-13.5,2.6-74.6-34.3-84.1-231.1,135.4,57.8,55.2v4.6l18.8,16.9,59.3,43.8,32.8-20,18.5-16.3.7.7-65.5,83.3.4-10.5-7.8-8.2-18.7-28.6-38.2-49.3v111.1h0c0,0-13.9,30.3-13.9,30.3v-152.5l-64.2-59.2-1.2-9.6-3.4-9.2.4-.2,254.2-138.3,12.3,4.8v.2c0,0,38.9,96.8,38.9,96.8v81.8h0c0,.1-82.8,136.4-82.8,136.4l82.8,142.2v82.9s-44.8,105.5-44.8,105.5ZM1145.9,1010.5l259.1,151.4,44.3-104.4v-82.3l-83-142.5.2-.3,82.8-136.4v-81.4l-38.7-96.4-11.4-4.4-253.4,137.9,3.2,8.6,1.1,9.3,64.2,59.3v148.4l11.9-25.9v-113.8l40,51.7,18.6,28.5,8.1,8.4-.3,7.8,60.3-76.6-14.5,12.8-33.4,20.4-.3-.2-59.6-44.1-19.2-17.3v-4.6l-58.5-55.8.6-.3,232.6-136.3,34.8,85.4h0c0,.1-2.7,75.1-2.7,75.1l-12.6,13.8-7.6,15.9-57.3,96,1.7,29.7,75.5,131.7v76.4s-33.4,86.5-33.4,86.5l-.5-.3-229.3-138.4,57-56,2.1-5.7,23.2-31.4,38.2-43.4,11.4-6.7,40.7-20.3-6.1-6.9-38,2.7-75.8,100.5-76,74.1Z"/>
          </g>
          <path d="M1646.5,861.5c-13,0-23.6-10.6-23.6-23.6s10.6-23.6,23.6-23.6,23.6,10.6,23.6,23.6-10.6,23.6-23.6,23.6ZM1646.5,826.3c-6.4,0-11.6,5.2-11.6,11.6s5.2,11.6,11.6,11.6,11.6-5.2,11.6-11.6-5.2-11.6-11.6-11.6Z"/>
          <g>
            <polygon points="1418.2 708.9 1380.6 738.8 1367.4 753.1 1370.2 755.7 1385.5 742.9 1412 721.9 1418.2 708.9"/>
            <path d="M1370.1,756.4l-3.5-3.3,13.6-14.6,39.4-31.4-7.2,15.1h0c0,0-26.4,21.1-26.4,21.1l-15.7,13ZM1368.1,753l2.1,2,15.1-12.5,26.4-21,5.2-11-35.9,28.6-12.8,13.8Z"/>
          </g>
          <g>
            <polygon points="1335.4 832.8 1356.8 815.9 1365.8 832.8 1355.7 849.6 1344.4 841.2 1337.8 841.2 1335.4 832.8"/>
            <path d="M1355.8,850.3l-11.5-8.6h-6.8l-2.6-9,22.1-17.5,9.4,17.7-10.6,17.4ZM1338.2,840.7h6.4l10.9,8.1,9.7-16-8.6-16.2-20.6,16.4,2.2,7.7Z"/>
          </g>
          <g>
            <line x1="1267.5" y1="769" x2="1419.6" y2="580.3"/>
            <path d="M1267.5,773c-.9,0-1.8-.3-2.5-.9-1.7-1.4-2-3.9-.6-5.6l152.2-188.7c1.4-1.7,3.9-2,5.6-.6,1.7,1.4,2,3.9.6,5.6l-152.2,188.7c-.8,1-1.9,1.5-3.1,1.5Z"/>
          </g>
          <g>
            <polygon points="1226.6 825.8 1260 782.1 1265.7 789.5 1226.6 844.7 1226.6 825.8"/>
            <path d="M1226.1,846.3v-20.6l33.9-44.4,6.4,8.2-.2.3-40,56.5ZM1227.1,826v17.1l38-53.6-5.1-6.6-32.9,43.1Z"/>
          </g>
          <g>
            <line x1="1436.7" y1="1039.9" x2="1290.3" y2="859.9"/>
            <path d="M1436.7,1043.9c-1.2,0-2.3-.5-3.1-1.5l-146.4-179.9c-1.4-1.7-1.1-4.2.6-5.6,1.7-1.4,4.2-1.1,5.6.6l146.4,179.9c1.4,1.7,1.1,4.2-.6,5.6-.7.6-1.6.9-2.5.9Z"/>
          </g>
          <path d="M1443.7,853.6c-8.6,0-15.6-7-15.6-15.6s7-15.6,15.6-15.6,15.6,7,15.6,15.6-7,15.6-15.6,15.6ZM1443.7,830.3c-4.2,0-7.6,3.4-7.6,7.6s3.4,7.6,7.6,7.6,7.6-3.4,7.6-7.6-3.4-7.6-7.6-7.6Z"/>
          <g>
            <line x1="1455.3" y1="837.9" x2="1629.1" y2="837.9"/>
            <rect x="1455.3" y="831.9" width="173.8" height="12"/>
          </g>
        </g>
        <g>
          <path d="M635.2,445.2c-2.5,0-5.1-1-7-2.9-3.9-3.9-4-10.2,0-14.1,98.8-100.3,230-159.4,369.4-166.6,5.5-.3,10.2,4,10.5,9.5.3,5.5-4,10.2-9.5,10.5-134.3,6.9-260.8,64-356.1,160.6-2,2-4.5,3-7.1,3Z"/>
          <path d="M607.9,474.9c-2.3,0-4.6-.8-6.5-2.4-4.2-3.6-4.7-9.9-1.1-14.1l.8-.9c3.6-4.2,9.9-4.7,14.1-1.1,4.2,3.6,4.7,9.9,1.1,14.1l-.8.9c-2,2.3-4.8,3.5-7.6,3.5Z"/>
          <path d="M586.9,501.1c-2.1,0-4.2-.7-6-2-4.4-3.3-5.3-9.6-2-14l.8-1.1c3.3-4.4,9.6-5.3,14-1.9,4.4,3.3,5.3,9.6,1.9,14l-.8,1c-2,2.6-5,4-8,4Z"/>
          <path d="M565.3,531.7c-1.9,0-3.8-.5-5.5-1.6-4.6-3-5.9-9.2-2.9-13.8l.4-.7c3-4.6,9.2-5.9,13.8-2.9,4.6,3,5.9,9.2,2.9,13.8l-.4.6c-1.9,2.9-5.1,4.5-8.4,4.5Z"/>
          <path d="M475.3,793.5c-.3,0-.6,0-.8,0-5.5-.5-9.6-5.3-9.1-10.8,6.9-81.7,30.4-159.3,70.1-230.7,2.7-4.8,8.8-6.6,13.6-3.9,4.8,2.7,6.6,8.8,3.9,13.6-38.3,68.9-61,143.8-67.6,222.7-.4,5.2-4.8,9.2-10,9.2Z"/>
          <path d="M594.6,1192.1c-3,0-5.9-1.3-7.8-3.8-67.3-85-108.9-187.1-120.3-295.2-.6-5.5,3.4-10.4,8.9-11,5.5-.6,10.4,3.4,11,8.9,11,104.3,51.2,202.9,116.1,284.9,3.4,4.3,2.7,10.6-1.6,14-1.8,1.5-4,2.2-6.2,2.2Z"/>
          <path d="M1003.8,1401.9c-.1,0-.3,0-.4,0-140.7-5.7-273.4-64.3-373.6-165.1-3.9-3.9-3.9-10.2,0-14.1s10.2-3.9,14.1,0c96.6,97.1,224.6,153.7,360.2,159.2,5.5.2,9.8,4.9,9.6,10.4-.2,5.4-4.6,9.6-10,9.6Z"/>
          <path d="M1049.1,1401.9c-5.3,0-9.8-4.2-10-9.6-.2-5.5,4.1-10.2,9.6-10.4,62.6-2.6,123.7-15.9,181.4-39.6,56-23,107.5-55.1,153.2-95.5,4.1-3.7,10.5-3.3,14.1.9,3.7,4.1,3.3,10.5-.9,14.1-47.4,41.9-100.8,75.2-158.8,99.1-59.9,24.6-123.2,38.4-188.2,41.1-.1,0-.3,0-.4,0Z"/>
          <path d="M1420.9,1234.6c-2.5,0-5-.9-7-2.8-4-3.8-4.1-10.2-.2-14.1l.4-.5c3.8-4,10.2-4.1,14.1-.2,4,3.8,4.1,10.2.2,14.1l-.4.5c-2,2-4.6,3-7.2,3Z"/>
          <path d="M1445.9,1207.1c-2.3,0-4.6-.8-6.5-2.4-4.2-3.6-4.7-9.9-1.2-14.1l.4-.5c3.6-4.2,9.9-4.7,14.1-1.1,4.2,3.6,4.7,9.9,1.1,14.1l-.3.4c-2,2.3-4.8,3.5-7.6,3.5Z"/>
          <path d="M1469.3,1177.6c-2.1,0-4.2-.6-5.9-2-4.4-3.3-5.4-9.5-2.1-14l.4-.5c3.3-4.4,9.5-5.4,14-2.1,4.4,3.3,5.4,9.5,2.1,14l-.4.5c-2,2.7-5,4.1-8,4.1Z"/>
          <path d="M1496.1,1137.9c-1.8,0-3.6-.5-5.2-1.5-4.7-2.9-6.2-9.1-3.3-13.8,43.3-70.4,69.8-147.9,78.7-230.4.6-5.5,5.5-9.5,11-8.9,5.5.6,9.5,5.5,8.9,11-9.2,85.5-36.7,165.8-81.6,238.8-1.9,3.1-5.2,4.8-8.5,4.8Z"/>
          <path d="M1577,788.2c-5.1,0-9.5-3.9-9.9-9.1-12.2-131.2-70.9-253.9-165.1-345.4-4-3.8-4.1-10.2-.2-14.1,3.8-4,10.2-4.1,14.1-.2,97.7,94.8,158.4,221.9,171.1,357.9.5,5.5-3.5,10.4-9,10.9-.3,0-.6,0-.9,0Z"/>
          <path d="M1388.5,417.7c-2.3,0-4.7-.8-6.6-2.5l-.3-.3c-4.1-3.7-4.5-10-.8-14.1,3.7-4.1,10-4.5,14.1-.8h.1c4.2,3.8,4.6,10.1,1,14.2-2,2.3-4.8,3.4-7.5,3.4Z"/>
          <path d="M1367.2,399.9c-2.2,0-4.4-.7-6.2-2.2l-.4-.3c-4.3-3.4-5.1-9.7-1.6-14,3.4-4.3,9.7-5.1,14-1.6l.4.3c4.3,3.4,5.1,9.7,1.7,14-2,2.5-4.9,3.8-7.9,3.8Z"/>
          <path d="M1346.9,384.5c-2,0-4.1-.6-5.9-1.9l-.2-.2c-4.5-3.2-5.5-9.5-2.3-13.9,3.2-4.5,9.5-5.5,13.9-2.3l.3.3c4.5,3.2,5.5,9.5,2.2,14-2,2.7-5,4.1-8.1,4.1Z"/>
          <path d="M1322.6,368c-1.9,0-3.7-.5-5.4-1.6-81.7-52.6-176.1-82.1-273.1-85.2-5.5-.2-9.8-4.8-9.7-10.3.2-5.5,4.8-9.9,10.3-9.7,100.6,3.3,198.5,33.8,283.3,88.4,4.6,3,6,9.2,3,13.8-1.9,3-5.1,4.6-8.4,4.6Z"/>
        </g>
      </g>
      <path d="M1020,1314.5"/>
      <line x1="1100.5" y1="413.2" x2="1106.9" y2="418.3"/>
    </g>
  </g>
</svg>